<?xml version="1.0" encoding="utf-8"?>
<!-- Generator: Adobe Illustrator 19.0.0, SVG Export Plug-In . SVG Version: 6.00 Build 0)  -->
<svg version="1.1" id="Layer_1" xmlns="http://www.w3.org/2000/svg" xmlns:xlink="http://www.w3.org/1999/xlink" x="0px" y="0px"
	 viewBox="0 0 500 500" style="enable-background:new 0 0 500 500;" xml:space="preserve">
<style type="text/css">
	.st0{fill:#b45309;}
</style>
<g>
	<ellipse class="st0" cx="178.6" cy="261.8" rx="20.9" ry="31.6"/>
	<path class="st0" d="M45,316.3L45,316.3c-14,0-25.4-11.4-25.4-25.4v-50c0-14,11.4-25.4,25.4-25.4h0c5.1,0,9.3,4.2,9.3,9.3V307
		C54.4,312.1,50.2,316.3,45,316.3z"/>
	<path class="st0" d="M398.3,151.4l-54.5-2.9l3.1-38.5c13-3.3,22.7-15.1,22.7-29.1c0-16.6-13.4-30-30-30s-30,13.4-30,30
		c0,11.3,6.2,21.1,15.5,26.3l-4,40.1l-3.9-0.2c-3.5-0.2-6.2-3.1-6.2-6.6v-0.1c0-6.7-5.4-12.1-12.1-12.1h-89.5
		c-6.7,0-12.1,5.4-12.1,12.1v0.1c0,3.5-2.7,6.4-6.2,6.6l-3.9,0.2l-4-40.1c9.2-5.1,15.5-15,15.5-26.3c0-16.6-13.4-30-30-30
		s-30,13.4-30,30c0,14,9.6,25.8,22.7,29.1l3.1,38.5l-54.5,2.9c-18,0-38.8,22.4-38.8,42.3L72.5,337c0,61.2,147.2,68,181.5,67.4
		c34.3,0.7,181.5-6.2,181.5-67.4l1.5-143.4C437,173.8,416.3,151.4,398.3,151.4z M405,323.7c0,46.3-122.7,45.3-151,45.4
		c-28.3-0.1-151,0.8-151-45.4v-118c0-15,12.3-27.3,27.3-27.3h247.5c15,0,27.3,12.3,27.3,27.3V323.7z"/>
	<path class="st0" d="M293.7,309.8c-6,15.5-22.2,26.4-39.7,26.4s-33.7-10.9-39.7-26.4c-0.5-1.2-0.7-2.4-0.7-3.6
		c0-5.2,4.2-9.8,9.8-9.8c4,0,7.7,2.4,9.1,6.1c3.1,8.3,12.3,14,21.6,14s18.5-5.7,21.6-14c0.7-1.9,2-3.4,3.6-4.5
		c1.6-1.1,3.5-1.7,5.5-1.7C291.5,296.5,296.2,303.4,293.7,309.8z"/>
	<ellipse class="st0" cx="329.4" cy="261.8" rx="20.9" ry="31.6"/>
	<path class="st0" d="M463,316.3L463,316.3c14,0,25.4-11.4,25.4-25.4v-50c0-14-11.4-25.4-25.4-25.4h0c-5.1,0-9.3,4.2-9.3,9.3V307
		C453.6,312.1,457.8,316.3,463,316.3z"/>
</g>
</svg>
